<svg xmlns="http://www.w3.org/2000/svg" xmlns:xlink="http://www.w3.org/1999/xlink" id="Ebene_1" x="0px" y="0px" viewBox="0 0 400 200" style="enable-background:new 0 0 400 200;" xml:space="preserve"><style type="text/css">	.st0{fill:#DD0320;}	.st1{fill:#222F4B;}	.st2{fill-rule:evenodd;clip-rule:evenodd;fill:#166BFF;}	.st3{filter:url(#Adobe_OpacityMaskFilter);}	.st4{fill-rule:evenodd;clip-rule:evenodd;fill:#FFFFFF;}	.st5{mask:url(#c_1_);fill-rule:evenodd;clip-rule:evenodd;fill:#003399;fill-opacity:0.65;}	.st6{fill:#292526;}	.st7{fill:#2B2728;}	.st8{fill:#2B2829;}	.st9{fill:#6E43A1;}	.st10{fill:#2C2829;}	.st11{fill:#252122;}	.st12{fill:#FE8559;}	.st13{fill:#2A2627;}	.st14{fill:#302D2D;}	.st15{fill:#E4032E;}	.st16{fill:#00A1E0;}	.st17{fill:#FFFFFF;}	.st18{fill:#E8762C;}	.st19{fill:#C62036;}	.st20{fill:#5A869A;}	.st21{fill:#5C6691;}	.st22{fill:#EB9028;}	.st23{fill-rule:evenodd;clip-rule:evenodd;fill:#1E457E;}	.st24{fill:#7098A4;}	.st25{fill-rule:evenodd;clip-rule:evenodd;fill:#5A869A;}	.st26{fill:#1E457E;}	.st27{clip-path:url(#SVGID_00000153680130246683493590000002410415163901776276_);}</style><g>	<polygon class="st15" points="109.1,31.4 85,168.6 201.6,168.6 225.7,31.4 109.1,31.4  "></polygon>	<g>		<defs>			<polygon id="SVGID_1_" points="109.1,31.4 85,168.6 201.6,168.6 225.7,31.4 109.1,31.4    "></polygon>		</defs>		<clipPath id="SVGID_00000050623711879870782570000007003040411357703058_">			<use xlink:href="#SVGID_1_" style="overflow:visible;"></use>		</clipPath>		<g style="clip-path:url(#SVGID_00000050623711879870782570000007003040411357703058_);">			<path class="st17" d="M198.1,42.7h-6.3l6.7,18.9h7l13.4-18.9h-6.1l-9.9,13.6L198.1,42.7z"></path>			<polygon class="st17" points="186.5,61.7 192.8,61.7 186.2,42.7 179.2,42.7 165.7,61.7 171.9,61.7 181.8,48.1    "></polygon>		</g>	</g>	<g>		<path d="M232.7,54.8c-0.1,0.5-0.2,0.9-0.3,1.2c-0.2,1.2-0.2,2.2-0.1,2.9c0.1,0.7,0.5,1.3,1,1.7c0.6,0.4,1.2,0.7,1.9,0.8    c0.8,0.2,2.1,0.2,3.7,0.2h7.9c2.1,0,3.7-0.3,4.8-1c1.1-0.7,1.8-1.7,2.1-3.1l0.4-2.3c0.2-0.9,0-1.6-0.4-2.1c-0.4-0.5-1.2-0.8-2.5-1    c1.1-0.2,2-0.5,2.5-1c0.5-0.5,0.8-1.3,1-2.4l0.4-2.2c0.3-1.4,0-2.4-0.9-3c-0.8-0.6-2.4-0.9-4.8-0.9h-7.7c-2.5,0-4.3,0.4-5.5,1.2    s-2,2.2-2.3,4.1c0,0.1,0,0.3-0.1,0.4c0,0.2,0,0.4-0.1,0.8h5.2l0-0.2c0.1-0.8,0.4-1.3,0.7-1.6c0.3-0.3,0.9-0.4,1.7-0.4h5.9    c0.9,0,1.4,0.1,1.7,0.4c0.3,0.2,0.4,0.7,0.3,1.3c-0.1,0.4-0.3,0.8-0.6,1.1c-0.3,0.3-0.7,0.4-1.2,0.4h-5.8l-0.7,4.2h5.5    c0.8,0,1.3,0.1,1.6,0.4c0.3,0.3,0.4,0.7,0.3,1.3c0,0.4-0.3,0.8-0.6,1.1c-0.3,0.2-0.8,0.3-1.4,0.3h-6.6c-1,0-1.7-0.1-2-0.4    c-0.3-0.3-0.4-0.8-0.2-1.6c0-0.2,0.1-0.3,0.1-0.4c0-0.1,0-0.2,0.1-0.2L232.7,54.8L232.7,54.8L232.7,54.8z M258.7,60.3    c1,0.9,2.7,1.4,5.1,1.4h8.3c1.9,0,3.4-0.3,4.4-1c1-0.7,1.7-1.7,1.9-3.1l0.6-3.7c0.3-1.5-0.1-2.5-1-3.1c-1-0.6-2.7-0.9-5.3-0.9    h-4.1c-1.2,0-2.2,0.1-2.9,0.3c-0.7,0.2-1.3,0.6-1.8,1.1l0.4-2c0.1-0.8,0.5-1.4,1-1.7c0.5-0.3,1.3-0.5,2.3-0.5h4.9    c0.8,0,1.4,0.1,1.8,0.4c0.3,0.2,0.5,0.6,0.5,1.2h4.9c0-0.1,0.1-0.3,0.1-0.4s0.1-0.4,0.1-0.6c0.3-1.6,0-2.7-1-3.5    c-0.9-0.7-2.5-1.1-4.8-1.1h-5c-3.5,0-6,0.4-7.4,1.3c-1.4,0.8-2.3,2.4-2.7,4.6l-1.3,7.2C257.4,57.9,257.7,59.4,258.7,60.3    L258.7,60.3z M263.4,57c-0.3-0.3-0.4-0.7-0.3-1.4c0.1-0.6,0.4-1.1,0.8-1.4c0.4-0.3,1.1-0.4,2-0.4h5.3c0.9,0,1.5,0.1,1.9,0.4    c0.3,0.3,0.4,0.7,0.3,1.3c-0.1,0.6-0.4,1.1-0.8,1.4c-0.4,0.3-1.1,0.4-2,0.4h-5.3C264.4,57.4,263.7,57.3,263.4,57z M292.4,42.7    c-1.8,0-3.1,0.1-4,0.3c-1.8,0.3-3.2,1.5-3.9,3.1c-0.4,0.9-0.8,2.1-1,3.7l-0.9,5c-0.2,1.4-0.3,2.5-0.2,3.4c0.1,0.9,0.4,1.6,0.9,2.1    c0.5,0.5,1.2,0.9,1.9,1c0.8,0.2,2.1,0.3,3.9,0.3h5.7c1.8,0,3.1-0.1,4-0.3c0.8-0.2,1.6-0.5,2.2-1c0.7-0.6,1.3-1.3,1.6-2.1    c0.5-1.1,0.8-2.3,1-3.5l0.9-5.1c0.2-1.4,0.3-2.6,0.2-3.5c-0.1-0.9-0.4-1.6-0.9-2.1c-0.5-0.5-1.2-0.9-1.9-1    c-0.8-0.2-2.1-0.3-3.9-0.3L292.4,42.7z M298.7,47.8c0.4,0.5,0.5,1.5,0.2,3l-0.5,2.8c-0.3,1.5-0.7,2.5-1.3,3    c-0.6,0.5-1.6,0.8-3.1,0.8h-2.7c-1.5,0-2.4-0.3-2.8-0.8c-0.4-0.5-0.5-1.5-0.2-2.9l0.5-2.7c0.3-1.5,0.7-2.6,1.3-3.1    c0.6-0.5,1.6-0.8,3.1-0.8h2.7C297.4,47.1,298.3,47.3,298.7,47.8L298.7,47.8z"></path>		<g>			<path d="M314.9,47c0,2.1-1.7,3.8-3.8,3.9c0,0-0.1,0-0.1,0c-2.2,0-3.8-1.7-3.8-3.7c-0.1-2.1,1.6-3.8,3.7-3.9c0.1,0,0.1,0,0.2,0     C313.4,43.3,314.9,45.1,314.9,47z M308.8,47.2c0,1.3,1,2.4,2.2,2.4s2.3-1.1,2.3-2.5c0-1.1-0.6-2.4-2.3-2.4     C309.5,44.6,308.8,45.9,308.8,47.2z"></path>			<path d="M311,51c-2.2,0-3.9-1.7-3.9-3.9c-0.1-2.2,1.7-4,3.8-4c0,0,0.1,0,0.1,0c2.6,0,3.9,2,3.9,3.9C315,49.5,313,51,311,51z      M311.1,43.4c-2,0-3.7,1.6-3.7,3.6c0,0,0,0.1,0,0.1c0,2,1.6,3.6,3.6,3.6c2,0,3.7-1.6,3.7-3.6c0,0,0,0,0-0.1     C314.7,45.3,313.4,43.4,311.1,43.4L311.1,43.4z M311,49.7c-1.3,0-2.4-1.1-2.4-2.5c0-1.3,0.8-2.7,2.4-2.7c1.7,0,2.4,1.3,2.4,2.6     C313.4,48.5,312.4,49.7,311,49.7z M311,44.8c-1.4,0-2.1,1.2-2.1,2.4c0,1.2,0.9,2.2,2.1,2.2c1.2,0,2.1-1,2.1-2.3     C313.2,46,312.5,44.8,311,44.8z"></path>		</g>	</g></g></svg>
