<svg xmlns="http://www.w3.org/2000/svg" width="199" height="168" fill="none" viewBox="0 0 199 168"><g clip-path="url(#clip0_175_385)"><path fill="#transparent" d="M0 0h198.375v168H0z"/><path fill="var(--color-orange-600)" d="m121.146 118.828 4.033 6.281a70.1 70.1 0 0 1-32.933 32.969 98.1 98.1 0 0 1-33.337 9.192c-4.732.498-9.49.743-14.253.734H0V39.701h33.848v99.022H45.85a71 71 0 0 0 13.05-1.146c15.086-2.799 26.62-10.759 33.238-23.764 4.084-8.015 8.318-15.928 8.318-27.765 0-.215 0-.43-.008-.635l20.698 33.419z"/><path fill="var(--color-gray-1200)" d="M198.375 0v168h-33.607l-35.05-54.668-26.865-44.256c-.129-.236-.245-.476-.383-.742a167 167 0 0 0-11.25-17.118 58.3 58.3 0 0 0-11.728-11.717l-2.255-1.576a49.6 49.6 0 0 0-16.924-6.942c-.46-.103-.927-.193-1.412-.283a67 67 0 0 0-10.178-1.13 91 91 0 0 0-2.868-.051H0V0h44.652c1.374 0 2.727.021 4.071.06 3.479.103 6.871.33 10.178.691C87.08 3.804 108.56 16.131 121.125 36l.039.073 3.839 6.878 40.01 71.768V0z"/></g><defs><clipPath id="clip0_175_385"><path fill="#fff" d="M0 0h198.375v168H0z"/></clipPath></defs></svg>
