<svg width="40" height="37" viewBox="0 0 40 37" fill="none" xmlns="http://www.w3.org/2000/svg">
<path d="M20.0703 14.249C17.9543 14.249 16.239 15.9788 16.239 18.1126C16.239 20.2464 17.9543 21.9762 20.0703 21.9762C22.1863 21.9762 23.9016 20.2464 23.9016 18.1126C23.9016 15.9788 22.1863 14.249 20.0703 14.249Z" fill="currentColor"/>
<path d="M39.9972 18.1478C39.9972 15.1145 37.2118 12.4543 32.7769 10.7035C32.8362 10.3093 32.8898 9.91925 32.9279 9.53636C33.3653 5.178 32.324 2.03235 29.9972 0.677305C27.3938 -0.838585 23.7167 0.261681 19.9986 3.26214C16.2805 0.261681 12.6034 -0.838585 10 0.677305C7.6732 2.03235 6.63186 5.178 7.06928 9.53636C7.10738 9.91925 7.15959 10.3107 7.22026 10.7064C6.85057 10.8487 6.48794 10.9996 6.13941 11.1576C2.18005 12.9524 0 15.4377 0 18.1478C0 21.181 2.78538 23.8412 7.22026 25.592C7.15959 25.9863 7.10738 26.3763 7.06928 26.7591C6.63186 31.1175 7.6732 34.2631 10 35.6182C10.8 36.0757 11.7065 36.3095 12.6259 36.2957C14.83 36.2957 17.4037 35.1257 19.9986 33.0334C22.5921 35.1257 25.1672 36.2957 27.3741 36.2957C28.2935 36.3093 29.1999 36.0755 30 35.6182C32.3268 34.2631 33.3681 31.1175 32.9307 26.7591C32.8926 26.3763 32.839 25.9863 32.7797 25.592C37.2146 23.8441 40 21.1795 40 18.1478M27.3571 1.92133C27.9483 1.90695 28.5327 2.05137 29.0504 2.3398C30.666 3.28065 31.3913 5.83275 31.0385 9.34136C31.0145 9.58048 30.9863 9.82246 30.9524 10.0659C29.1084 9.50566 27.2201 9.10613 25.3083 8.87165C24.1494 7.31768 22.8606 5.8667 21.4562 4.53464C23.6616 2.81521 25.7316 1.92133 27.3557 1.92133M26.598 21.9908C25.8844 23.2403 25.1072 24.4518 24.2698 25.6204C22.8503 25.7675 21.4242 25.8407 19.9972 25.8397C18.5707 25.8406 17.145 25.7675 15.726 25.6204C14.8907 24.4518 14.116 23.2403 13.4048 21.9908C12.6912 20.7448 12.0427 19.4621 11.4618 18.1478C12.0427 16.8334 12.6912 15.5507 13.4048 14.3047C14.1149 13.0602 14.8872 11.8531 15.7189 10.6879C17.1406 10.5371 18.5691 10.4621 19.9986 10.463C21.4251 10.4621 22.8507 10.5353 24.2698 10.6822C25.1043 11.8492 25.8795 13.0582 26.5924 14.3047C27.3054 15.551 27.9539 16.8337 28.5353 18.1478C27.9539 19.4618 27.3054 20.7445 26.5924 21.9908M29.5061 20.5675C29.954 21.7993 30.3216 23.0593 30.6067 24.3394C29.3694 24.7285 28.108 25.0352 26.8308 25.2575C27.3162 24.5192 27.7866 23.7511 28.2419 22.953C28.692 22.1645 29.1139 21.3688 29.5118 20.5732M17.319 27.6744C18.1967 27.7285 19.0927 27.7598 20 27.7598C20.9073 27.7598 21.8089 27.7285 22.688 27.6744C21.8545 28.6814 20.9566 29.6324 20 30.5211C19.0455 29.6325 18.1499 28.6815 17.319 27.6744ZM13.1678 25.2546C11.8901 25.0334 10.6283 24.7276 9.39043 24.3394C9.67441 23.0613 10.0406 21.8032 10.4868 20.5732C10.8791 21.3688 11.2996 22.1645 11.7567 22.953C12.2139 23.7416 12.6866 24.5188 13.1678 25.2575M10.4868 15.7209C10.0422 14.4954 9.67696 13.2421 9.39325 11.9689C10.6281 11.5802 11.8865 11.2726 13.1607 11.048C12.6781 11.7839 12.2054 12.5468 11.7497 13.3425C11.2939 14.1381 10.8777 14.9238 10.4798 15.7209M22.6796 8.61971C21.8019 8.56562 20.9059 8.53431 19.9915 8.53431C19.0847 8.53431 18.1911 8.56278 17.3106 8.61971C18.1414 7.61255 19.037 6.66158 19.9915 5.77297C20.9485 6.66135 21.8464 7.61232 22.6796 8.61971ZM28.239 13.3425C27.7819 12.5435 27.3092 11.7748 26.8209 11.0366C28.1015 11.2589 29.3662 11.566 30.6067 11.9561C30.3221 13.234 29.9559 14.4921 29.5104 15.7223C29.1181 14.9267 28.6962 14.131 28.2404 13.3439M8.9643 9.34278C8.60731 5.8356 9.33681 3.28207 10.951 2.34122C11.4689 2.05324 12.0531 1.90885 12.6443 1.92275C14.2684 1.92275 16.3384 2.81663 18.5438 4.53606C17.1384 5.86907 15.8487 7.32099 14.6889 8.87592C12.7776 9.11151 10.8895 9.50957 9.04473 10.0659C9.01228 9.82246 8.98264 9.58191 8.96007 9.34278M6.92112 12.9097C7.13842 12.8149 7.35995 12.72 7.58572 12.6251C8.02956 14.514 8.63141 16.3615 9.38479 18.1478C8.62998 19.9375 8.02765 21.7889 7.58431 23.6818C3.98899 22.1944 1.9049 20.1334 1.9049 18.1478C1.9049 16.2661 3.73924 14.3573 6.92112 12.9097ZM10.951 33.9543C9.33681 33.0134 8.60731 30.4599 8.9643 26.9527C8.98688 26.7136 9.01651 26.473 9.04896 26.2282C10.8931 26.7883 12.7813 27.1878 14.6931 27.4224C15.8524 28.977 17.1411 30.4289 18.5452 31.7623C15.4706 34.1578 12.6612 34.9478 10.9553 33.9543M31.0371 26.9527C31.3899 30.4613 30.6646 33.0134 29.049 33.9543C27.3444 34.9506 24.5337 34.1578 21.4604 31.7623C22.8641 30.4288 24.1523 28.9769 25.3111 27.4224C27.2229 27.1879 29.1112 26.7884 30.9553 26.2282C30.9891 26.473 31.0174 26.7136 31.0413 26.9527M32.4213 23.679C31.9767 21.7872 31.374 19.9368 30.6194 18.1478C31.3736 16.3577 31.9759 14.5064 32.4199 12.6137C36.0082 14.1011 38.0979 16.1621 38.0979 18.1478C38.0979 20.1334 36.0138 22.1944 32.4185 23.6818" fill="currentColor"/>
</svg>
